<?xml version="1.0" encoding="UTF-8"?>
<svg version="1.1" xmlns="http://www.w3.org/2000/svg" width="88" height="69">
<path d="M0 0 C29.04 0 58.08 0 88 0 C88 22.77 88 45.54 88 69 C58.96 69 29.92 69 0 69 C0 46.23 0 23.46 0 0 Z " fill="#FDFDFD" transform="translate(0,0)"/>
<path d="M0 0 C0.85464844 -0.00515625 1.70929687 -0.0103125 2.58984375 -0.015625 C5.0625 0.25 5.0625 0.25 6.84375 1.25 C10.34304445 2.82714679 13.83441563 2.53838566 17.625 2.5 C18.77645508 2.51160156 18.77645508 2.51160156 19.95117188 2.5234375 C23.83457821 2.50989467 25.76274677 2.44983549 29.0625 0.25 C33.97758428 -0.47753399 37.99558607 -0.25435931 42.5 1.875 C46.58842326 5.66427034 48.20524629 9.10074495 48.5 14.625 C48.31118652 19.49310414 46.94505411 23.32085701 44.0625 27.25 C40.99545064 29.86025477 39.20695665 31.15048203 35.1875 31.5 C34.48625 31.4175 33.785 31.335 33.0625 31.25 C32.815 31.889375 32.5675 32.52875 32.3125 33.1875 C30.65438428 37.24988351 28.8589416 41.24724906 27.0625 45.25 C30.0325 45.58 33.0025 45.91 36.0625 46.25 C36.3925 44.27 36.7225 42.29 37.0625 40.25 C37.3925 40.25 37.7225 40.25 38.0625 40.25 C37.5675 45.2 37.5675 45.2 37.0625 50.25 C33.1025 50.25 29.1425 50.25 25.0625 50.25 C24.4980282 42.91186666 26.50922896 37.08911885 29.0625 30.25 C28.43601563 29.85167969 27.80953125 29.45335938 27.1640625 29.04296875 C26.34679688 28.51316406 25.52953125 27.98335937 24.6875 27.4375 C23.87539063 26.91542969 23.06328125 26.39335938 22.2265625 25.85546875 C20.0625 24.25 20.0625 24.25 18.0625 21.25 C15.22010017 22.40801474 13.71223661 23.60026339 11.5 25.8125 C9.0625 28.25 9.0625 28.25 6.0625 29.25 C6.4234375 30.095625 6.784375 30.94125 7.15625 31.8125 C9.78044279 38.22719348 11.7436893 43.3018691 11.0625 50.25 C7.1025 50.25 3.1425 50.25 -0.9375 50.25 C-2.0952506 46.77674819 -2.00616652 43.88932552 -1.9375 40.25 C0.0625 42.25 0.0625 42.25 0.0625 46.25 C3.0325 46.25 6.0025 46.25 9.0625 46.25 C8.79695313 45.58613281 8.53140625 44.92226563 8.2578125 44.23828125 C6.52604167 39.90885417 4.79427083 35.57942708 3.0625 31.25 C2.19238281 31.26353516 2.19238281 31.26353516 1.3046875 31.27734375 C-2.28981896 31.14091859 -4.96085389 31.0317188 -7.8359375 28.73046875 C-12.43040278 23.40761263 -13.33911214 19.01843342 -13.29296875 12.05078125 C-12.72659363 7.58824324 -10.95006859 5.54280753 -7.9375 2.25 C-4.71002945 0.09835297 -3.73244361 -0.02245079 0 0 Z " fill="#131313" transform="translate(25.9375,8.75)"/>
<path d="M0 0 C1.9375 1.5 1.9375 1.5 3 3 C1.73046875 4.46484375 0.4609375 5.9296875 -0.80859375 7.39453125 C-4.0981814 11.82738542 -3.2519611 17.26776745 -2.5 22.4375 C-2.335 23.283125 -2.17 24.12875 -2 25 C-6.23234104 24.83721765 -8.3524139 24.63098132 -11.4375 21.625 C-13.57819266 16.65859302 -13.68292679 12.33333301 -13 7 C-10.2915594 0.68030528 -6.68240554 -0.59664335 0 0 Z " fill="#F9F9F9" transform="translate(28,12)"/>
<path d="M0 0 C3.5764765 2.17698569 5.42299948 4.16816541 7 8 C7.70734169 12.98429144 7.47169302 16.96590376 5.375 21.5625 C2.57093489 24.4403563 0.95349203 24.82029582 -3 25 C-2.835 24.319375 -2.67 23.63875 -2.5 22.9375 C-1.35952668 16.23721923 -1.82264621 12.31841754 -5.62109375 6.734375 C-7.19752953 4.75154925 -8.81792124 3.29308371 -11 2 C-7.3078813 -0.46141247 -4.28645195 -0.68650207 0 0 Z " fill="#F8F8F8" transform="translate(65,11)"/>
<path d="M0 0 C3.40728644 1.40991163 5.14595741 2.7975628 7 6 C7.29296875 9.453125 7.29296875 9.453125 7.1875 13.25 C7.16042969 14.51328125 7.13335937 15.7765625 7.10546875 17.078125 C7.07066406 18.04234375 7.03585938 19.0065625 7 20 C3.33213607 18.49650623 1.31089607 16.36271208 -1.25 13.375 C-1.95640625 12.55773438 -2.6628125 11.74046875 -3.390625 10.8984375 C-3.92171875 10.27195312 -4.4528125 9.64546875 -5 9 C-3.90931332 5.22454612 -3.0916909 2.52956528 0 0 Z " fill="#F5F5F5" transform="translate(51,15)"/>
<path d="M0 0 C1.5078125 1.96875 1.5078125 1.96875 3.125 4.5 C3.66382813 5.3353125 4.20265625 6.170625 4.7578125 7.03125 C5.16773438 7.6809375 5.57765625 8.330625 6 9 C3.43571997 13.17882671 0.98069267 16.12505529 -3 19 C-5.76840762 16.23159238 -5.29949595 14.48286854 -5.3125 10.625 C-5.32925781 9.48289062 -5.34601562 8.34078125 -5.36328125 7.1640625 C-4.95249403 3.58623834 -4.13991714 0 0 0 Z " fill="#F5F5F5" transform="translate(35,17)"/>
<path d="M0 0 C3.70270486 5.5540573 4.22186294 9.45504337 4 16 C0.04 16 -3.92 16 -8 16 C-9.1577506 12.52674819 -9.06866652 9.63932552 -9 6 C-7 8 -7 8 -7 12 C-4.03 12 -1.06 12 2 12 C1.77183594 11.30132812 1.54367188 10.60265625 1.30859375 9.8828125 C1.02113281 8.97273438 0.73367187 8.06265625 0.4375 7.125 C0.14746094 6.22007813 -0.14257812 5.31515625 -0.44140625 4.3828125 C-1 2 -1 2 0 0 Z " fill="#141414" transform="translate(33,43)"/>
<path d="M0 0 C0.66 0.33 1.32 0.66 2 1 C2 3 2 3 0.5625 4.5 C0.046875 4.995 -0.46875 5.49 -1 6 C-2.9655308 9.9310616 -2.32849953 14.70471365 -2 19 C-1.18816067 22.16788784 -1.18816067 22.16788784 1 24 C4.56769552 24.73606499 4.56769552 24.73606499 8 25 C8.33 25.66 8.66 26.32 9 27 C5.875 27.9375 5.875 27.9375 2 28 C-1.45699715 25.28488056 -3.61791802 22.14624594 -5 18 C-5.62836304 12.36268591 -5.93100064 7.55193308 -2.5 2.8125 C-1.675 1.884375 -0.85 0.95625 0 0 Z " fill="#292929" transform="translate(18,11)"/>
<path d="M0 0 C0.66 0.66 1.32 1.32 2 2 C0.02 4.97 0.02 4.97 -2 8 C-5.99996286 6.66667905 -6.83782337 4.5042173 -9 1 C-5.75778445 -0.08073852 -3.39597063 -0.21676408 0 0 Z " fill="#EEEEEE" transform="translate(47,12)"/>
<path d="M0 0 C1.75 0.0625 1.75 0.0625 4 1 C8.01161584 6.34882112 8.53671217 10.42527587 8 17 C7.34 16.67 6.68 16.34 6 16 C5.5078125 13.92578125 5.5078125 13.92578125 5.125 11.3125 C4.28350451 6.58248101 2.95877029 3.7477757 0 0 Z " fill="#353535" transform="translate(66,11)"/>
<path d="M0 0 C4.22222222 6.33333333 4.22222222 6.33333333 3.625 10.8125 C3.41875 11.534375 3.2125 12.25625 3 13 C0.03 13 -2.94 13 -6 13 C-6 12.67 -6 12.34 -6 12 C-3.36 12 -0.72 12 2 12 C1.77183594 11.30132812 1.54367188 10.60265625 1.30859375 9.8828125 C0.87740234 8.51769531 0.87740234 8.51769531 0.4375 7.125 C0.14746094 6.22007813 -0.14257812 5.31515625 -0.44140625 4.3828125 C-1 2 -1 2 0 0 Z " fill="#4F4F4F" transform="translate(33,43)"/>
<path d="M0 0 C0.66 0.33 1.32 0.66 2 1 C2 1.66 2 2.32 2 3 C1.29423828 3.64388672 1.29423828 3.64388672 0.57421875 4.30078125 C-1.47306559 6.51062912 -1.69019524 8.24192566 -2.1875 11.1875 C-2.34605469 12.08855469 -2.50460938 12.98960938 -2.66796875 13.91796875 C-2.77753906 14.60503906 -2.88710937 15.29210938 -3 16 C-3.33 16 -3.66 16 -4 16 C-5.72107623 8.48520179 -5.72107623 8.48520179 -3.953125 4.84375 C-2.5625 2.9375 -2.5625 2.9375 0 0 Z " fill="#414141" transform="translate(18,11)"/>
<path d="M0 0 C0.75 1.625 0.75 1.625 1 4 C-1.08139861 7.85444186 -2.79030081 10.49653601 -7 12 C-6.45028435 8.15199046 -4.72962142 6.64690561 -2 4 C-0.76487921 1.86690808 -0.76487921 1.86690808 0 0 Z " fill="#1A1A1A" transform="translate(72,27)"/>
<path d="M0 0 C0.99 0.66 1.98 1.32 3 2 C2.01 4.31 1.02 6.62 0 9 C-0.66 8.67 -1.32 8.34 -2 8 C-1.34 5.36 -0.68 2.72 0 0 Z " fill="#393939" transform="translate(53,45)"/>
</svg>
